<svg xmlns="http://www.w3.org/2000/svg" version="1.1" xmlns:xlink="http://www.w3.org/1999/xlink" xmlns:svgjs="http://svgjs.dev/svgjs" width="1000" height="1000" viewBox="0 0 1000 1000"><rect width="1000" height="1000" fill="#8abe53"></rect><g transform="matrix(0.7,0,0,0.7,149.57575757575756,252.30255000000002)"><svg viewBox="0 0 396 280" data-background-color="#8abe53" preserveAspectRatio="xMidYMid meet" height="707" width="1000" xmlns="http://www.w3.org/2000/svg" xmlns:xlink="http://www.w3.org/1999/xlink"><g id="tight-bounds" transform="matrix(1,0,0,1,0.2400000000000091,0.13999999999998636)"><svg viewBox="0 0 395.52 279.72" height="279.72" width="395.52"><g><svg viewBox="0 0 395.52 279.72" height="279.72" width="395.52"><g><svg viewBox="0 0 395.52 279.72" height="279.72" width="395.52"><g><svg viewBox="0 0 395.52 279.72" height="279.72" width="395.52"><g><svg viewBox="0 0 395.52 279.72" height="279.72" width="395.52"><g transform="matrix(1,0,0,1,131.8293637221663,73.92936372216631)"><svg viewBox="0 0 131.8612725556674 131.8612725556674" height="131.8612725556674" width="131.8612725556674"><g><svg version="1.1" xmlns:dc="http://purl.org/dc/elements/1.1/" xmlns:inkscape="http://www.inkscape.org/namespaces/inkscape" xmlns:rdf="http://www.w3.org/1999/02/22-rdf-syntax-ns#" xmlns:cc="http://creativecommons.org/ns#" xmlns:svg="http://www.w3.org/2000/svg" xmlns:sodipodi="http://sodipodi.sourceforge.net/DTD/sodipodi-0.dtd" xmlns="http://www.w3.org/2000/svg" xmlns:xlink="http://www.w3.org/1999/xlink" x="0" y="0" viewBox="0 0 100 100" enable-background="new 0 0 100 100" xml:space="preserve" height="131.8612725556674" width="131.8612725556674" class="icon-o-0" data-fill-palette-color="accent" id="o-0"><path d="M50 0C22.386 0 0 22.386 0 50s22.386 50 50 50 50-22.386 50-50S77.614 0 50 0zM50 14.156c19.799 0 35.844 16.044 35.844 35.844 0 19.799-16.045 35.844-35.844 35.844-19.799 0-35.844-16.045-35.844-35.844C14.156 30.201 30.201 14.156 50 14.156zM50 20.125c-16.505 0-29.875 13.37-29.875 29.875S33.495 79.875 50 79.875 79.875 66.505 79.875 50 66.505 20.125 50 20.125zM50 29.75c11.178 0 20.25 9.072 20.25 20.25S61.178 70.25 50 70.25 29.75 61.178 29.75 50 38.822 29.75 50 29.75z" fill="#4d7e3e" data-fill-palette-color="accent"></path></svg></g></svg></g><path d="M89.263 103.035V103.035C88.66 104.727 87.731 106.36 86.475 107.934 85.219 109.508 83.674 110.785 81.841 111.766V111.766L78.434 106.026C79.54 105.338 80.528 104.525 81.4 103.588 82.28 102.647 82.895 101.684 83.246 100.698V100.698C83.625 99.636 83.735 98.804 83.576 98.203 83.415 97.608 83.036 97.204 82.438 96.991V96.991C82.107 96.873 81.804 96.858 81.529 96.947 81.248 97.033 80.956 97.198 80.654 97.441 80.35 97.691 80.032 98.001 79.7 98.37 79.365 98.745 78.987 99.184 78.564 99.686V99.686L75.979 102.507C75.452 103.121 74.845 103.676 74.16 104.17 73.473 104.671 72.734 105.056 71.942 105.326 71.155 105.605 70.313 105.746 69.416 105.749 68.519 105.752 67.59 105.582 66.629 105.24V105.24C65.484 104.832 64.5 104.205 63.676 103.36 62.854 102.508 62.221 101.508 61.776 100.361 61.336 99.222 61.114 97.964 61.111 96.586 61.104 95.215 61.36 93.804 61.876 92.354V92.354C62.422 90.821 63.266 89.369 64.407 87.998 65.539 86.63 66.942 85.55 68.615 84.755V84.755L71.785 89.863C70.833 90.542 70.047 91.24 69.426 91.958 68.796 92.679 68.305 93.533 67.954 94.519V94.519C67.644 95.391 67.549 96.128 67.672 96.73 67.803 97.329 68.167 97.735 68.765 97.948V97.948C69.395 98.172 70.006 97.995 70.598 97.418 71.189 96.847 71.936 96.027 72.84 94.959V94.959L75.274 92.17C76.523 90.737 77.897 89.778 79.395 89.294 80.894 88.81 82.575 88.9 84.439 89.564V89.564C85.558 89.963 86.557 90.58 87.434 91.416 88.306 92.25 88.974 93.251 89.439 94.421 89.898 95.588 90.131 96.896 90.137 98.347 90.15 99.799 89.859 101.362 89.263 103.035ZM111.488 64.049L100.394 79.15 77.563 62.377 88.399 47.628 93.452 51.339 87.054 60.049 90.637 62.681 96.106 55.237 101.167 58.955 95.698 66.399 99.771 69.392 106.427 60.331ZM121.636 37.938V37.938L122.356 39.83 126.659 36.846 125.148 35.502C124.082 34.581 122.949 33.564 121.749 32.449 120.554 31.33 119.408 30.288 118.312 29.323V29.323L118.17 29.421C118.731 30.798 119.326 32.231 119.954 33.718 120.581 35.214 121.142 36.621 121.636 37.938ZM126.83 51.098L120.53 55.468 111.478 27.27 118.927 22.105 142.161 40.467 135.644 44.986 131.067 40.839 124.55 45.358ZM160.759 33.119L154.327 35.047 146.192 7.911 153.876 5.607 161.291 15.492C161.768 16.166 162.24 16.871 162.707 17.605 163.169 18.347 163.647 19.085 164.142 19.818V19.818L164.307 19.769C164.317 18.884 164.311 18.005 164.288 17.131 164.274 16.261 164.277 15.414 164.298 14.59V14.59L164.898 2.303 172.581 0 180.716 27.136 174.196 29.091 171.794 21.077C171.585 20.378 171.391 19.601 171.212 18.746 171.033 17.89 170.853 17.01 170.674 16.105 170.496 15.206 170.337 14.324 170.197 13.456 170.057 12.589 169.928 11.806 169.81 11.108V11.108L169.645 11.158 169.339 18.355 168.692 28.33 164.85 29.482 158.822 21.508 154.695 15.64 154.53 15.689C154.816 16.337 155.138 17.061 155.499 17.862 155.859 18.664 156.212 19.488 156.557 20.336 156.905 21.191 157.24 22.025 157.561 22.838 157.882 23.651 158.148 24.407 158.357 25.105V25.105ZM229.741 31.856V31.856C227.999 31.42 226.402 30.71 224.949 29.727 223.502 28.752 222.325 27.531 221.418 26.065 220.52 24.594 219.938 22.889 219.671 20.95 219.405 19.011 219.565 16.872 220.151 14.534V14.534C220.73 12.222 221.61 10.263 222.791 8.659 223.973 7.055 225.33 5.79 226.863 4.865 228.402 3.949 230.048 3.366 231.802 3.116 233.556 2.866 235.307 2.96 237.056 3.398V3.398C238.884 3.856 240.428 4.625 241.688 5.707 242.942 6.786 243.941 7.941 244.684 9.172V9.172L239.715 12.876C239.183 12.11 238.608 11.447 237.989 10.888 237.364 10.328 236.586 9.931 235.656 9.698V9.698C234.837 9.493 234.021 9.484 233.209 9.67 232.403 9.858 231.641 10.221 230.922 10.758 230.201 11.301 229.554 12.023 228.98 12.924 228.411 13.832 227.972 14.906 227.662 16.144V16.144C227.012 18.737 227.055 20.861 227.79 22.513 228.531 24.168 229.789 25.217 231.564 25.662V25.662C232.638 25.931 233.65 25.937 234.598 25.68 235.546 25.423 236.396 25.045 237.148 24.544V24.544L239.806 30.065C238.289 31.119 236.677 31.79 234.969 32.079 233.265 32.377 231.523 32.302 229.741 31.856ZM258.395 44.011L252.041 40.037 267.061 16.018 273.416 19.992 267.825 28.931 274.996 33.415 280.586 24.476 286.941 28.449 271.921 52.469 265.566 48.495 271.527 38.963 264.356 34.479ZM298.848 61.683V61.683L296.994 62.498 300.191 66.646 301.456 65.069C302.323 63.958 303.282 62.776 304.336 61.521 305.393 60.271 306.376 59.075 307.285 57.931V57.931L307.18 57.795C305.832 58.424 304.432 59.09 302.978 59.792 301.515 60.493 300.138 61.124 298.848 61.683ZM285.964 67.532L281.284 61.458 308.992 51.003 314.525 58.183 297.352 82.31 292.511 76.028 296.424 71.249 291.583 64.967ZM307.028 103.44L304.183 96.494 324.597 88.134 321.757 81.198 327.558 78.821 336.084 99.639 330.282 102.015 327.442 95.079ZM70.235 189.7V189.7C69.838 188.502 69.658 187.291 69.695 186.07 69.73 184.842 70.012 183.686 70.542 182.6 71.072 181.514 71.862 180.527 72.912 179.639 73.958 178.76 75.286 178.054 76.895 177.521V177.521C78.478 176.997 79.968 176.782 81.364 176.874 82.756 176.976 84.014 177.306 85.138 177.866 86.256 178.428 87.217 179.184 88.023 180.134 88.832 181.075 89.435 182.145 89.832 183.344V183.344C90.247 184.6 90.372 185.804 90.205 186.954 90.038 188.105 89.727 189.132 89.273 190.036V190.036L85.215 188.477C85.472 187.88 85.647 187.292 85.741 186.714 85.84 186.133 85.784 185.522 85.572 184.881V184.881C85.387 184.324 85.088 183.839 84.675 183.428 84.261 183.018 83.758 182.7 83.165 182.477 82.578 182.252 81.909 182.142 81.157 182.149 80.404 182.15 79.604 182.29 78.758 182.57V182.57C76.975 183.16 75.733 183.983 75.03 185.041 74.328 186.098 74.178 187.236 74.581 188.454V188.454C74.825 189.191 75.202 189.792 75.711 190.257 76.22 190.721 76.763 191.082 77.339 191.34V191.34L75.07 194.992C73.877 194.484 72.873 193.781 72.057 192.885 71.245 191.98 70.638 190.918 70.235 189.7ZM77.238 205.762V205.762C76.624 204.522 76.273 203.29 76.187 202.067 76.11 200.846 76.29 199.68 76.726 198.567 77.161 197.454 77.86 196.408 78.821 195.427 79.779 194.455 80.99 193.606 82.454 192.881V192.881C83.912 192.158 85.312 191.714 86.653 191.546 87.991 191.388 89.229 191.476 90.366 191.809 91.498 192.145 92.513 192.72 93.413 193.532 94.322 194.348 95.084 195.376 95.698 196.616V196.616C96.304 197.839 96.657 199.061 96.758 200.285 96.866 201.505 96.704 202.67 96.274 203.78 95.848 204.896 95.167 205.934 94.234 206.893 93.3 207.853 92.104 208.694 90.646 209.417V209.417C89.182 210.142 87.773 210.592 86.42 210.765 85.06 210.941 83.804 210.862 82.652 210.529 81.502 210.202 80.463 209.632 79.533 208.819 78.609 208.003 77.844 206.984 77.238 205.762ZM81.286 203.757V203.757C81.82 204.834 82.71 205.444 83.956 205.587 85.197 205.734 86.631 205.404 88.259 204.598V204.598C89.88 203.794 90.984 202.867 91.571 201.815 92.151 200.766 92.175 199.703 91.641 198.626V198.626C91.108 197.549 90.248 196.924 89.062 196.751 87.87 196.58 86.463 196.897 84.841 197.7V197.7C83.214 198.506 82.082 199.447 81.447 200.523 80.806 201.602 80.752 202.68 81.286 203.757ZM87.232 221.865L84.332 217.775 100.536 206.288 103.647 210.676 98.964 219.396 96.424 223.518 96.494 223.617C96.889 223.263 97.321 222.869 97.792 222.436 98.258 222.007 98.743 221.576 99.248 221.144 99.752 220.712 100.262 220.28 100.776 219.85 101.288 219.428 101.793 219.042 102.288 218.691V218.691L106.973 215.37 109.873 219.46 93.669 230.946 90.553 226.55 95.266 217.821 97.79 213.71 97.719 213.611C96.859 214.37 95.927 215.205 94.925 216.114 93.917 217.027 92.914 217.837 91.917 218.544V218.544ZM101.062 238.593L97.544 235.021 111.696 221.084 115.47 224.916 112.247 234.274 110.401 238.75 110.486 238.837C110.819 238.424 111.183 237.966 111.578 237.463 111.968 236.965 112.378 236.462 112.807 235.954 113.236 235.446 113.669 234.939 114.108 234.431 114.546 233.933 114.982 233.471 115.415 233.044V233.044L119.506 229.015 123.024 232.587 108.873 246.524 105.092 242.685 108.344 233.313 110.175 228.85 110.09 228.764C109.362 229.651 108.577 230.624 107.733 231.682 106.884 232.745 106.025 233.706 105.154 234.563V234.563ZM123.784 257.779L113.266 249.892 125.183 234.002 135.458 241.707 132.82 245.224 126.751 240.672 124.879 243.168 130.065 247.057 127.428 250.574 122.242 246.685 120.115 249.521 126.427 254.255ZM135.494 264.649V264.649C134.385 264.045 133.427 263.284 132.62 262.367 131.806 261.447 131.222 260.409 130.868 259.254 130.513 258.099 130.416 256.839 130.576 255.473 130.739 254.116 131.226 252.693 132.038 251.205V251.205C132.836 249.741 133.777 248.566 134.86 247.68 135.946 246.803 137.09 246.185 138.294 245.826 139.494 245.473 140.712 245.368 141.949 245.512 143.183 245.646 144.354 246.016 145.463 246.62V246.62C146.625 247.254 147.538 248.048 148.202 249.002 148.866 249.956 149.341 250.919 149.627 251.89V251.89L145.598 253.523C145.378 252.911 145.105 252.362 144.777 251.876 144.453 251.384 143.995 250.976 143.402 250.653V250.653C142.886 250.372 142.337 250.222 141.755 250.205 141.172 250.187 140.588 250.299 140.002 250.541 139.42 250.777 138.856 251.155 138.312 251.673 137.762 252.189 137.274 252.837 136.847 253.62V253.62C135.948 255.268 135.604 256.718 135.813 257.971 136.022 259.223 136.69 260.156 137.816 260.77V260.77C138.498 261.142 139.184 261.324 139.873 261.315 140.562 261.306 141.205 261.199 141.802 260.994V260.994L142.64 265.212C141.421 265.655 140.208 265.828 139 265.73 137.789 265.624 136.62 265.263 135.494 264.649ZM153.132 271.894L148.217 270.032 153.695 255.569 148.779 253.707 150.336 249.596 165.084 255.182 163.527 259.293 158.611 257.431ZM174.935 267.607V267.607L174.375 268.909 177.99 269.523 177.891 268.109C177.811 267.13 177.744 266.067 177.692 264.921 177.634 263.774 177.568 262.688 177.496 261.662V261.662L177.376 261.642C176.986 262.61 176.581 263.62 176.163 264.672 175.743 265.731 175.334 266.709 174.935 267.607ZM171.091 276.755L165.789 275.855 175.075 257.285 181.346 258.35 183.982 278.944 178.5 278.013 178.247 273.697 172.755 272.764ZM191.864 279.305L186.854 279.118 187.595 259.269 192.97 259.47 197.042 268.491 198.768 273.015 198.89 273.019C198.848 272.491 198.799 271.908 198.742 271.271 198.684 270.64 198.638 269.993 198.602 269.329 198.566 268.666 198.533 267.999 198.504 267.329 198.481 266.666 198.482 266.031 198.504 265.424V265.424L198.719 259.685 203.729 259.872 202.988 279.72 197.603 279.519 193.542 270.468 191.815 265.964 191.693 265.96C191.772 267.105 191.868 268.352 191.979 269.7 192.091 271.056 192.124 272.344 192.078 273.566V273.566ZM214.707 278.365L208.576 279.125 206.133 259.414 211.962 258.691C213.457 258.506 214.85 258.517 216.141 258.725 217.425 258.933 218.562 259.377 219.552 260.057 220.541 260.737 221.36 261.663 222.009 262.835 222.651 264.007 223.079 265.461 223.294 267.197V267.197C223.51 268.939 223.455 270.467 223.127 271.779 222.8 273.092 222.245 274.209 221.461 275.13 220.683 276.042 219.718 276.768 218.567 277.305 217.408 277.836 216.121 278.19 214.707 278.365ZM211.868 262.949L213.274 274.297 213.576 274.26C214.286 274.172 214.946 274.001 215.554 273.749 216.155 273.498 216.658 273.133 217.061 272.654 217.465 272.175 217.75 271.544 217.919 270.762 218.087 269.979 218.1 269.011 217.957 267.858V267.858C217.814 266.706 217.567 265.784 217.216 265.092 216.864 264.394 216.435 263.873 215.93 263.527 215.424 263.175 214.85 262.964 214.208 262.893 213.559 262.817 212.879 262.823 212.169 262.911V262.911ZM243.62 271.82V271.82C242.423 272.223 241.214 272.41 239.993 272.38 238.765 272.352 237.606 272.076 236.518 271.552 235.429 271.028 234.438 270.244 233.544 269.198 232.659 268.157 231.945 266.833 231.404 265.227V265.227C230.871 263.647 230.648 262.158 230.733 260.761 230.826 259.369 231.15 258.109 231.703 256.982 232.259 255.861 233.009 254.896 233.955 254.085 234.892 253.271 235.958 252.662 237.155 252.259V252.259C238.409 251.836 239.612 251.705 240.763 251.865 241.915 252.026 242.944 252.331 243.851 252.781V252.781L242.314 256.847C241.715 256.593 241.126 256.421 240.548 256.331 239.966 256.235 239.356 256.294 238.716 256.51V256.51C238.159 256.698 237.677 256.999 237.268 257.415 236.86 257.831 236.545 258.336 236.325 258.93 236.103 259.518 235.997 260.188 236.008 260.939 236.013 261.693 236.158 262.492 236.442 263.337V263.337C237.042 265.116 237.872 266.353 238.934 267.05 239.995 267.747 241.134 267.891 242.35 267.481V267.481C243.085 267.233 243.684 266.853 244.146 266.341 244.607 265.829 244.965 265.284 245.22 264.707V264.707L248.885 266.956C248.383 268.151 247.686 269.159 246.794 269.98 245.894 270.797 244.835 271.41 243.62 271.82ZM259.643 264.726V264.726C258.406 265.347 257.176 265.705 255.953 265.798 254.734 265.882 253.566 265.709 252.451 265.279 251.336 264.85 250.285 264.157 249.299 263.202 248.321 262.25 247.466 261.044 246.732 259.584V259.584C246.001 258.13 245.549 256.732 245.374 255.392 245.208 254.054 245.289 252.816 245.615 251.677 245.945 250.544 246.514 249.525 247.321 248.621 248.132 247.707 249.156 246.94 250.392 246.318V246.318C251.611 245.706 252.832 245.345 254.055 245.237 255.274 245.123 256.44 245.278 257.552 245.701 258.671 246.122 259.712 246.796 260.677 247.724 261.643 248.652 262.491 249.843 263.221 251.297V251.297C263.955 252.757 264.412 254.164 264.593 255.516 264.777 256.875 264.706 258.131 264.379 259.285 264.058 260.436 263.494 261.479 262.687 262.414 261.876 263.343 260.862 264.113 259.643 264.726ZM257.614 260.689V260.689C258.688 260.15 259.294 259.256 259.43 258.009 259.569 256.767 259.231 255.335 258.416 253.712V253.712C257.603 252.095 256.669 250.996 255.614 250.416 254.562 249.841 253.499 249.824 252.425 250.363V250.363C251.351 250.903 250.731 251.766 250.564 252.954 250.401 254.147 250.725 255.552 251.538 257.169V257.169C252.353 258.792 253.301 259.918 254.38 260.546 255.462 261.181 256.541 261.229 257.614 260.689ZM275.468 254.695L271.675 257.487 259.9 241.492 264.427 238.16 271.657 242.924C272.132 243.262 272.612 243.617 273.096 243.99 273.579 244.372 274.068 244.746 274.563 245.111V245.111L274.661 245.039C274.459 244.458 274.248 243.88 274.026 243.305 273.808 242.736 273.608 242.175 273.427 241.621V241.621L270.927 233.374 275.454 230.041 287.23 246.036 283.396 248.858 279.919 244.136C279.615 243.722 279.302 243.257 278.98 242.74 278.659 242.213 278.333 241.673 278.002 241.121 277.67 240.568 277.357 240.023 277.062 239.485 276.763 238.943 276.494 238.457 276.254 238.03V238.03L276.157 238.102 277.649 242.914 279.581 249.655 277.313 251.324 271.45 247.478 267.347 244.587 267.25 244.659C267.587 245.015 267.97 245.416 268.4 245.863 268.825 246.304 269.253 246.765 269.682 247.245 270.111 247.726 270.527 248.2 270.929 248.666 271.333 249.124 271.687 249.559 271.991 249.972V249.972ZM294.876 238.188L291.234 241.978 276.912 228.216 281.951 222.972C282.7 222.193 283.489 221.523 284.318 220.962 285.152 220.406 286.012 220.043 286.897 219.872 287.777 219.707 288.673 219.758 289.586 220.027 290.499 220.295 291.403 220.86 292.299 221.72V221.72C293.18 222.567 293.785 223.453 294.114 224.378 294.443 225.302 294.557 226.222 294.455 227.136 294.349 228.055 294.064 228.956 293.599 229.839 293.13 230.718 292.537 231.529 291.821 232.274V232.274L290.333 233.823ZM283.549 227.303L287.339 230.945 288.652 229.58C289.372 228.83 289.73 228.106 289.726 227.409 289.717 226.707 289.388 226.045 288.741 225.423V225.423C288.098 224.805 287.453 224.565 286.807 224.702 286.16 224.849 285.483 225.29 284.777 226.025V226.025ZM312.096 216.797L304.368 227.433 288.299 215.758 295.848 205.368 299.405 207.952 294.945 214.089 297.469 215.923 301.279 210.678 304.836 213.262 301.025 218.506 303.893 220.59 308.531 214.207ZM318.668 204.448L316.218 209.099 302.534 201.89 300.084 206.54 296.195 204.491 303.546 190.539 307.435 192.588 304.985 197.239ZM327.166 183.88L322.534 196.184 303.946 189.185 308.471 177.166 312.585 178.715 309.912 185.815 312.831 186.914 315.115 180.847 319.229 182.396 316.945 188.463 320.263 189.712 323.043 182.328ZM59.243 143.764C59.243 137.676 64.178 132.741 70.266 132.741 76.354 132.741 81.289 137.676 81.289 143.764 81.289 149.852 76.354 154.787 70.266 154.787 64.178 154.787 59.243 149.852 59.243 143.764ZM314.231 143.764C314.231 137.676 319.166 132.741 325.254 132.741 331.342 132.741 336.277 137.676 336.277 143.764 336.277 149.852 331.342 154.787 325.254 154.787 319.166 154.787 314.231 149.852 314.231 143.764Z" fill="#4d7e3e" data-fill-palette-color="primary"></path></svg></g></svg></g></svg></g></svg></g><defs></defs></svg><rect width="395.52" height="279.72" fill="none" stroke="none" visibility="hidden"></rect></g></svg></g></svg>